<svg width="32" height="32" viewBox="0 0 32 32" fill="none" xmlns="http://www.w3.org/2000/svg">
<g clip-path="url(#clip0_416_2942)">
<path d="M19 10C20.6569 10 22 8.65685 22 7C22 5.34315 20.6569 4 19 4C17.3431 4 16 5.34315 16 7C16 8.65685 17.3431 10 19 10Z" stroke="white" stroke-width="2" stroke-linecap="round" stroke-linejoin="round"/>
<path d="M7 13.2C7 13.2 11 9.99125 17 14.075C23.3088 18.3625 27 16.6813 27 16.6813" stroke="white" stroke-width="2" stroke-linecap="round" stroke-linejoin="round"/>
<path d="M13.83 20.145C16.0587 20.625 22 22.5 22 29" stroke="white" stroke-width="2" stroke-linecap="round" stroke-linejoin="round"/>
<path d="M16.805 13.9388C16.0463 16.905 12.3512 25.835 4 25" stroke="white" stroke-width="2" stroke-linecap="round" stroke-linejoin="round"/>
</g>
<defs>
<clipPath id="clip0_416_2942">
<rect width="32" height="32" fill="white"/>
</clipPath>
</defs>
</svg>
