<svg width="13" height="13" viewBox="0 0 13 13" fill="none" xmlns="http://www.w3.org/2000/svg">
<path d="M12.8639 2.92166L10.0783 0.136056C10.0352 0.0929212 9.984 0.0587044 9.92764 0.0353598C9.87128 0.0120153 9.81087 0 9.74987 0C9.68887 0 9.62846 0.0120153 9.5721 0.0353598C9.51575 0.0587044 9.46454 0.0929212 9.4214 0.136056C9.37827 0.179192 9.34405 0.2304 9.32071 0.286759C9.29736 0.343118 9.28534 0.403523 9.28534 0.464525C9.28534 0.525528 9.29736 0.585933 9.32071 0.642292C9.34405 0.69865 9.37827 0.749859 9.4214 0.792994L10.4863 1.85733L8.82134 3.52231L6.82847 1.52886C6.74135 1.44174 6.6232 1.3928 6.5 1.3928C6.3768 1.3928 6.25865 1.44174 6.17153 1.52886C6.08441 1.61597 6.03547 1.73413 6.03547 1.85733C6.03547 1.98053 6.08441 2.09868 6.17153 2.1858L6.54004 2.55373L1.66524 7.42853C1.57864 7.51444 1.50998 7.61671 1.46326 7.72939C1.41653 7.84207 1.39267 7.96291 1.39306 8.08489V10.9506L0.136056 12.207C0.0929212 12.2501 0.0587044 12.3013 0.0353598 12.3577C0.0120153 12.4141 0 12.4745 0 12.5355C0 12.5965 0.0120153 12.6569 0.0353598 12.7132C0.0587044 12.7696 0.0929212 12.8208 0.136056 12.8639C0.223172 12.9511 0.341326 13 0.464525 13C0.525528 13 0.585933 12.988 0.642292 12.9646C0.69865 12.9413 0.749859 12.9071 0.792994 12.8639L2.04942 11.6069H4.91511C5.03709 11.6073 5.15793 11.5835 5.27061 11.5367C5.38329 11.49 5.48555 11.4214 5.57146 11.3348L10.4463 6.45996L10.8142 6.82847C10.8573 6.8716 10.9085 6.90582 10.9649 6.92916C11.0213 6.95251 11.0817 6.96452 11.1427 6.96452C11.2037 6.96452 11.2641 6.95251 11.3204 6.92916C11.3768 6.90582 11.428 6.8716 11.4711 6.82847C11.5143 6.78533 11.5485 6.73412 11.5718 6.67777C11.5952 6.62141 11.6072 6.561 11.6072 6.5C11.6072 6.439 11.5952 6.37859 11.5718 6.32223C11.5485 6.26587 11.5143 6.21466 11.4711 6.17153L9.47769 4.17866L11.1427 2.51368L12.207 3.5786C12.2941 3.66571 12.4123 3.71465 12.5355 3.71465C12.6587 3.71465 12.7768 3.66571 12.8639 3.5786C12.9511 3.49148 13 3.37333 13 3.25013C13 3.12693 12.9511 3.00877 12.8639 2.92166ZM4.91511 10.6784H2.32159V8.08489L3.3662 7.04029L4.54659 8.22127C4.58973 8.26441 4.64094 8.29862 4.6973 8.32197C4.75366 8.34531 4.81406 8.35733 4.87506 8.35733C4.93607 8.35733 4.99647 8.34531 5.05283 8.32197C5.10919 8.29862 5.1604 8.26441 5.20353 8.22127C5.24667 8.17814 5.28089 8.12693 5.30423 8.07057C5.32757 8.01421 5.33959 7.9538 5.33959 7.8928C5.33959 7.8318 5.32757 7.77139 5.30423 7.71503C5.28089 7.65868 5.24667 7.60747 5.20353 7.56433L4.02255 6.38393L4.759 5.64749L5.9394 6.82847C6.02651 6.91558 6.14467 6.96452 6.26787 6.96452C6.39107 6.96452 6.50922 6.91558 6.59633 6.82847C6.68345 6.74135 6.73239 6.6232 6.73239 6.5C6.73239 6.3768 6.68345 6.25865 6.59633 6.17153L5.41535 4.99113L7.1964 3.21009L9.78991 5.8036L4.91511 10.6784Z" fill="#8D8D8D"/>
</svg>