<svg width="26" height="26" viewBox="0 0 26 26" fill="none" xmlns="http://www.w3.org/2000/svg">
<path d="M10.3458 16.4667L19.5812 7.23125C19.7798 7.01458 20.0236 6.90625 20.3125 6.90625C20.6013 6.90625 20.8541 7.01458 21.0708 7.23125C21.2694 7.44792 21.3687 7.70069 21.3687 7.98958C21.3687 8.27847 21.2694 8.53125 21.0708 8.74792L11.077 18.7417C10.8604 18.9583 10.6076 19.0667 10.3187 19.0667C10.0479 19.0667 9.80413 18.9583 9.58746 18.7417L4.90204 14.0563C4.70343 13.8396 4.60413 13.5868 4.60413 13.2979C4.62218 13.009 4.73051 12.7563 4.92913 12.5396C5.14579 12.341 5.39857 12.2417 5.68746 12.2417C5.9944 12.2417 6.24718 12.341 6.44579 12.5396L10.3458 16.4667Z" fill="white"/>
</svg>
