<svg width="18" height="18" viewBox="0 0 18 18" fill="none" xmlns="http://www.w3.org/2000/svg">
<path d="M14.7735 5.97268C14.2888 5.49838 13.8086 5.02113 13.3254 4.54389C12.8571 4.08284 12.3917 3.61885 11.9205 3.16076C11.7489 2.99431 11.5372 2.9619 11.3179 3.04144C11.0868 3.1254 10.9451 3.29627 10.9153 3.54079C10.8914 3.73669 10.9466 3.92965 10.9704 4.12409C11.0346 4.64699 11.1062 5.1699 11.1777 5.69281C11.1867 5.75762 11.1598 5.74289 11.1226 5.72669C11.0346 5.68986 10.9496 5.64715 10.8601 5.61769C10.259 5.41884 9.64906 5.39085 9.03311 5.54846C8.53647 5.67513 8.08756 5.89903 7.71769 6.25549C7.28519 6.67382 6.85268 7.09362 6.43509 7.5252C5.56411 8.42372 5.35383 9.47543 5.71922 10.6523C5.75501 10.7687 5.80572 10.8806 5.85046 10.9941C5.83107 11.0073 5.81318 11 5.79528 10.997C5.31654 10.9263 4.83929 10.8556 4.36055 10.7864C4.11746 10.751 3.87585 10.7039 3.63126 10.6818C3.34789 10.6553 3.08839 10.8394 3.01979 11.109C2.95864 11.3476 3.04365 11.5361 3.21367 11.7026C3.80725 12.2844 4.39933 12.8662 4.99142 13.4481C5.44629 13.8958 5.90117 14.3451 6.35605 14.7929C6.45597 14.8916 6.56783 14.9667 6.71547 14.9932C7.04209 15.0492 7.38064 14.7502 7.34186 14.4246C7.30905 14.1389 7.26878 13.8546 7.22852 13.5703C7.16289 13.1137 7.09429 12.6556 7.02867 12.199C7.02569 12.1754 7.00331 12.143 7.03016 12.1268C7.05402 12.1121 7.07938 12.1386 7.10175 12.1489C7.49398 12.3374 7.90859 12.4229 8.34259 12.4288C8.60806 12.4332 8.86905 12.3963 9.12707 12.336C9.59387 12.227 10.0159 12.0296 10.3605 11.6967C10.8332 11.2401 11.3015 10.779 11.7609 10.3091C12.3187 9.73762 12.6035 9.04679 12.6259 8.2558C12.6363 7.88755 12.5692 7.52814 12.438 7.18199C12.3738 7.01113 12.2918 6.8491 12.1993 6.68413C12.2172 6.68265 12.2277 6.67823 12.2366 6.67971C12.6706 6.74452 13.1031 6.80933 13.5371 6.87267C13.8086 6.91244 14.08 6.95663 14.3529 6.98756C14.6557 7.02144 14.9212 6.83142 14.9853 6.54861C15.039 6.30999 14.9405 6.12881 14.775 5.96678L14.7735 5.97268ZM10.951 9.74204C10.5767 10.1029 10.2143 10.4771 9.83548 10.8335C9.31498 11.3225 8.69605 11.517 7.98615 11.3844C7.45223 11.2842 7.03314 11.0117 6.7632 10.5374C6.59914 10.2502 6.54247 9.93647 6.54247 9.66544C6.54993 9.09392 6.71249 8.63435 7.07639 8.25727C7.37616 7.94794 7.68936 7.6504 7.99659 7.34844C8.09353 7.2527 8.19196 7.15843 8.2889 7.06121C8.61701 6.72832 9.02565 6.55303 9.48053 6.47349C9.92049 6.3969 10.3411 6.45581 10.7303 6.67382C11.3045 6.9964 11.5983 7.49427 11.6117 8.14238C11.6237 8.76398 11.4089 9.30014 10.9525 9.74056L10.951 9.74204Z" fill="white"/>
</svg>
